<mxfile host="app.diagrams.net" modified="2022-04-14T18:43:38.748Z" agent="5.0 (Windows NT 10.0; Win64; x64) AppleWebKit/537.36 (KHTML, like Gecko) Chrome/100.0.4896.88 Safari/537.36" etag="DDfwBCHgLJJqb7hXVS-e" version="17.2.4" type="github">
  <diagram name="Overall req. handling" id="c7488fd3-1785-93aa-aadb-54a6760d102a">
    <mxGraphModel dx="321.21" dy="-11.81" grid="1" gridSize="7" guides="1" tooltips="1" connect="1" arrows="1" fold="1" page="1" pageScale="1" pageWidth="1169" pageHeight="827" background="none" math="1" shadow="0">
      <root>
        <mxCell id="0" />
        <mxCell id="1" parent="0" />
        <mxCell id="2b4e8129b02d487f-1" value="REST Web API: request handling pipeline" style="swimlane;html=1;childLayout=stackLayout;horizontal=1;startSize=20;horizontalStack=0;rounded=1;shadow=0;labelBackgroundColor=none;strokeWidth=1;fontFamily=Verdana;fontSize=8;align=center;strokeColor=#575757;fontColor=#FF00FF;verticalAlign=middle;" parent="1" vertex="1">
          <mxGeometry x="203" y="63" width="931" height="1312" as="geometry">
            <mxRectangle x="180" y="70" width="210" height="21" as="alternateBounds" />
          </mxGeometry>
        </mxCell>
        <mxCell id="2b4e8129b02d487f-2" value="MVC middleware" style="swimlane;html=1;startSize=20;horizontal=0;strokeColor=#575757;fontColor=#FF00FF;" parent="2b4e8129b02d487f-1" vertex="1">
          <mxGeometry y="20" width="931" height="260" as="geometry">
            <mxRectangle y="20" width="680" height="28" as="alternateBounds" />
          </mxGeometry>
        </mxCell>
        <mxCell id="ZFfrjUVuDJgjYZVKDLoG-13" value="" style="edgeStyle=orthogonalEdgeStyle;rounded=0;orthogonalLoop=1;jettySize=auto;html=1;fontColor=#FF00FF;flowAnimation=1;fillColor=#6a00ff;strokeColor=#7F00FF;" edge="1" parent="2b4e8129b02d487f-2" source="2b4e8129b02d487f-5" target="2b4e8129b02d487f-6">
          <mxGeometry relative="1" as="geometry" />
        </mxCell>
        <mxCell id="2b4e8129b02d487f-5" value="HTTP&lt;br style=&quot;font-size: 11px;&quot;&gt;request" style="ellipse;whiteSpace=wrap;html=1;rounded=0;shadow=0;labelBackgroundColor=none;strokeWidth=1;fontFamily=Verdana;fontSize=11;align=center;aspect=fixed;" parent="2b4e8129b02d487f-2" vertex="1">
          <mxGeometry x="63" y="17" width="56" height="56" as="geometry" />
        </mxCell>
        <mxCell id="2b4e8129b02d487f-6" value="routing,&lt;br style=&quot;font-size: 11px;&quot;&gt;model binding,&lt;br style=&quot;font-size: 11px;&quot;&gt;validation&lt;br style=&quot;font-size: 11px;&quot;&gt;" style="rounded=1;whiteSpace=wrap;html=1;shadow=0;labelBackgroundColor=none;strokeWidth=1;fontFamily=Verdana;fontSize=11;align=center;aspect=fixed;" parent="2b4e8129b02d487f-2" vertex="1">
          <mxGeometry x="46" y="106.99999999999997" width="91" height="45.5" as="geometry" />
        </mxCell>
        <mxCell id="2b4e8129b02d487f-23" style="edgeStyle=orthogonalEdgeStyle;rounded=0;html=1;labelBackgroundColor=none;startArrow=none;startFill=0;startSize=5;endArrow=classicThin;endFill=1;endSize=5;jettySize=auto;orthogonalLoop=1;strokeWidth=1;fontFamily=Verdana;fontSize=8;flowAnimation=1;strokeColor=#7F00FF;" parent="2b4e8129b02d487f-2" source="2b4e8129b02d487f-10" target="2b4e8129b02d487f-11" edge="1">
          <mxGeometry relative="1" as="geometry" />
        </mxCell>
        <mxCell id="2b4e8129b02d487f-10" value="" style="shape=mxgraph.bpmn.shape;html=1;verticalLabelPosition=bottom;labelBackgroundColor=#ffffff;verticalAlign=top;perimeter=rhombusPerimeter;background=gateway;outline=none;symbol=parallelGw;rounded=1;shadow=0;strokeWidth=1;fontFamily=Verdana;fontSize=8;align=center;" parent="2b4e8129b02d487f-2" vertex="1">
          <mxGeometry x="784" y="30" width="30" height="30" as="geometry" />
        </mxCell>
        <mxCell id="2b4e8129b02d487f-11" value="HTTP&lt;br&gt;response" style="ellipse;whiteSpace=wrap;html=1;rounded=0;shadow=0;labelBackgroundColor=none;strokeWidth=2;fontFamily=Verdana;fontSize=8;align=center;aspect=fixed;" parent="2b4e8129b02d487f-2" vertex="1">
          <mxGeometry x="853" y="20" width="50" height="50" as="geometry" />
        </mxCell>
        <mxCell id="2b4e8129b02d487f-3" value="Action filter" style="swimlane;html=1;startSize=20;horizontal=0;rounded=0;strokeColor=#575757;fontColor=#FF00FF;" parent="2b4e8129b02d487f-1" vertex="1">
          <mxGeometry y="280" width="931" height="686" as="geometry">
            <mxRectangle y="280" width="680" height="20" as="alternateBounds" />
          </mxGeometry>
        </mxCell>
        <mxCell id="ZFfrjUVuDJgjYZVKDLoG-20" value="If-Match / If-None-Match" style="shape=process;whiteSpace=wrap;html=1;backgroundOutline=1;rounded=1;fontFamily=Helvetica;fontSize=12;startSize=20;strokeWidth=1;size=0.024390243902439025;verticalAlign=bottom;labelPosition=center;verticalLabelPosition=top;align=center;arcSize=2;portConstraintRotation=0;strokeColor=none;fontColor=#3399FF;" vertex="1" parent="2b4e8129b02d487f-3">
          <mxGeometry x="30" y="24.5" width="677" height="637" as="geometry" />
        </mxCell>
        <mxCell id="2b4e8129b02d487f-15" value="HTTP&lt;br style=&quot;font-size: 11px;&quot;&gt;method?" style="strokeWidth=1;html=1;shape=mxgraph.flowchart.decision;whiteSpace=wrap;rounded=1;shadow=0;labelBackgroundColor=none;fontFamily=Verdana;fontSize=11;align=center;aspect=fixed;verticalAlign=middle;spacing=2;spacingTop=-12;" parent="2b4e8129b02d487f-3" vertex="1">
          <mxGeometry x="59" y="42" width="69" height="69" as="geometry" />
        </mxCell>
        <mxCell id="ZFfrjUVuDJgjYZVKDLoG-23" value="Header?" style="strokeWidth=1;html=1;shape=mxgraph.flowchart.decision;whiteSpace=wrap;rounded=1;shadow=0;labelBackgroundColor=none;fontFamily=Verdana;fontSize=11;align=center;aspect=fixed;" vertex="1" parent="2b4e8129b02d487f-3">
          <mxGeometry x="156" y="160" width="59" height="59" as="geometry" />
        </mxCell>
        <mxCell id="ZFfrjUVuDJgjYZVKDLoG-17" value="GET, HEAD" style="orthogonalLoop=1;jettySize=auto;html=1;fontFamily=Helvetica;fontSize=12;fontColor=#FFFFFF;startSize=20;entryX=0.5;entryY=0;entryDx=0;entryDy=0;exitX=0.5;exitY=1;exitDx=0;exitDy=0;exitPerimeter=0;edgeStyle=orthogonalEdgeStyle;elbow=vertical;entryPerimeter=0;curved=1;flowAnimation=1;fillColor=#6a00ff;strokeColor=#7F00FF;" edge="1" parent="2b4e8129b02d487f-3" source="2b4e8129b02d487f-15" target="ZFfrjUVuDJgjYZVKDLoG-23">
          <mxGeometry relative="1" as="geometry">
            <mxPoint x="92" y="134" as="targetPoint" />
          </mxGeometry>
        </mxCell>
        <mxCell id="ZFfrjUVuDJgjYZVKDLoG-75" style="edgeStyle=orthogonalEdgeStyle;comic=0;jumpStyle=none;orthogonalLoop=1;jettySize=auto;html=1;entryX=0.5;entryY=1;entryDx=0;entryDy=0;fontFamily=Helvetica;fontSize=11;fontColor=#FFFFFF;startArrow=none;startFill=0;startSize=20;strokeColor=#7F00FF;elbow=vertical;exitX=0;exitY=0.5;exitDx=0;exitDy=0;exitPerimeter=0;curved=1;flowAnimation=1;" edge="1" parent="2b4e8129b02d487f-3" source="ZFfrjUVuDJgjYZVKDLoG-43" target="ZFfrjUVuDJgjYZVKDLoG-74">
          <mxGeometry relative="1" as="geometry" />
        </mxCell>
        <mxCell id="ZFfrjUVuDJgjYZVKDLoG-76" value="value IS IEtag" style="edgeLabel;html=1;align=center;verticalAlign=middle;resizable=0;points=[];fontSize=11;fontFamily=Helvetica;fontColor=#FFFFFF;" vertex="1" connectable="0" parent="ZFfrjUVuDJgjYZVKDLoG-75">
          <mxGeometry x="0.1243" y="-8" relative="1" as="geometry">
            <mxPoint as="offset" />
          </mxGeometry>
        </mxCell>
        <mxCell id="ZFfrjUVuDJgjYZVKDLoG-43" value="context&lt;br&gt;.Result?" style="strokeWidth=1;html=1;shape=mxgraph.flowchart.decision;whiteSpace=wrap;rounded=1;shadow=0;labelBackgroundColor=none;fontFamily=Verdana;fontSize=11;align=center;aspect=fixed;" vertex="1" parent="2b4e8129b02d487f-3">
          <mxGeometry x="388.5" y="546" width="91" height="91" as="geometry" />
        </mxCell>
        <mxCell id="ZFfrjUVuDJgjYZVKDLoG-25" style="edgeStyle=orthogonalEdgeStyle;jumpStyle=none;orthogonalLoop=1;jettySize=auto;html=1;fontFamily=Helvetica;fontSize=12;fontColor=#FFFFFF;startSize=20;elbow=vertical;exitX=0.5;exitY=1;exitDx=0;exitDy=0;exitPerimeter=0;curved=1;flowAnimation=1;fillColor=#6a00ff;strokeColor=#7F00FF;" edge="1" parent="2b4e8129b02d487f-3" source="ZFfrjUVuDJgjYZVKDLoG-23" target="ZFfrjUVuDJgjYZVKDLoG-52">
          <mxGeometry relative="1" as="geometry">
            <mxPoint x="97" y="434" as="targetPoint" />
          </mxGeometry>
        </mxCell>
        <mxCell id="ZFfrjUVuDJgjYZVKDLoG-28" value="If-None-Match&lt;br&gt;IS &quot;val&quot;" style="edgeLabel;html=1;align=center;verticalAlign=middle;resizable=0;points=[];fontSize=12;fontFamily=Helvetica;fontColor=#FFFFFF;" vertex="1" connectable="0" parent="ZFfrjUVuDJgjYZVKDLoG-25">
          <mxGeometry x="-0.1079" y="3" relative="1" as="geometry">
            <mxPoint x="-3" y="18" as="offset" />
          </mxGeometry>
        </mxCell>
        <mxCell id="ZFfrjUVuDJgjYZVKDLoG-57" style="jumpStyle=none;orthogonalLoop=1;jettySize=auto;html=1;fontFamily=Helvetica;fontSize=11;fontColor=#FFFFFF;startArrow=none;startFill=0;startSize=20;elbow=vertical;exitX=1;exitY=0.5;exitDx=0;exitDy=0;exitPerimeter=0;entryX=0;entryY=0.5;entryDx=0;entryDy=0;flowAnimation=1;fillColor=#e3c800;strokeColor=#B09500;" edge="1" parent="2b4e8129b02d487f-3" source="ZFfrjUVuDJgjYZVKDLoG-52" target="ZFfrjUVuDJgjYZVKDLoG-80">
          <mxGeometry relative="1" as="geometry">
            <mxPoint x="361.5652173913045" y="126" as="targetPoint" />
          </mxGeometry>
        </mxCell>
        <mxCell id="ZFfrjUVuDJgjYZVKDLoG-58" value="YES:&lt;br&gt;COND. IS FULFILLED" style="edgeLabel;html=1;align=center;verticalAlign=middle;resizable=0;points=[];fontSize=11;fontFamily=Helvetica;fontColor=#FFFFFF;" vertex="1" connectable="0" parent="ZFfrjUVuDJgjYZVKDLoG-57">
          <mxGeometry x="0.1417" y="12" relative="1" as="geometry">
            <mxPoint x="59" y="135" as="offset" />
          </mxGeometry>
        </mxCell>
        <mxCell id="ZFfrjUVuDJgjYZVKDLoG-55" value="" style="group;treeMoving=0;treeFolding=0;pointerEvents=0;autosize=1;" vertex="1" connectable="0" parent="2b4e8129b02d487f-3">
          <mxGeometry x="113.5" y="329" width="140" height="140" as="geometry" />
        </mxCell>
        <mxCell id="ZFfrjUVuDJgjYZVKDLoG-52" value="" style="strokeWidth=1;html=1;shape=mxgraph.flowchart.decision;whiteSpace=wrap;rounded=1;shadow=0;labelBackgroundColor=none;fontFamily=Verdana;fontSize=11;align=center;aspect=fixed;" vertex="1" parent="ZFfrjUVuDJgjYZVKDLoG-55">
          <mxGeometry width="140" height="140" as="geometry" />
        </mxCell>
        <mxCell id="ZFfrjUVuDJgjYZVKDLoG-49" value="cache.GET:&lt;br&gt;found?" style="shape=step;perimeter=stepPerimeter;whiteSpace=wrap;html=1;fixedSize=1;rounded=1;fontFamily=Helvetica;fontSize=11;fontColor=#FFFFFF;startSize=20;strokeColor=#575757;strokeWidth=1;fillColor=default;aspect=fixed;labelPosition=center;verticalLabelPosition=middle;align=center;verticalAlign=middle;spacingRight=-10;" vertex="1" parent="ZFfrjUVuDJgjYZVKDLoG-55">
          <mxGeometry x="26.5" y="41" width="87" height="58" as="geometry" />
        </mxCell>
        <mxCell id="ZFfrjUVuDJgjYZVKDLoG-78" value="" style="edgeStyle=orthogonalEdgeStyle;curved=1;comic=0;jumpStyle=none;orthogonalLoop=1;jettySize=auto;html=1;fontFamily=Helvetica;fontSize=11;fontColor=#FFFFFF;startArrow=none;startFill=0;startSize=20;strokeColor=#7F00FF;elbow=vertical;flowAnimation=1;" edge="1" parent="2b4e8129b02d487f-3" source="ZFfrjUVuDJgjYZVKDLoG-74" target="ZFfrjUVuDJgjYZVKDLoG-77">
          <mxGeometry relative="1" as="geometry" />
        </mxCell>
        <mxCell id="ZFfrjUVuDJgjYZVKDLoG-74" value="cache.SET:&lt;br&gt;[ETag, value]" style="shape=step;perimeter=stepPerimeter;whiteSpace=wrap;html=1;fixedSize=1;rounded=1;fontFamily=Helvetica;fontSize=12;fontColor=#A69200;startSize=20;strokeColor=#A69200;strokeWidth=1;fillColor=default;" vertex="1" parent="2b4e8129b02d487f-3">
          <mxGeometry x="274.5" y="442" width="112" height="50" as="geometry" />
        </mxCell>
        <mxCell id="ZFfrjUVuDJgjYZVKDLoG-77" value="&lt;span style=&quot;font-size: 11px&quot;&gt;set response header&lt;br&gt;ETag&amp;nbsp; = result Value.ETag&lt;/span&gt;" style="shape=step;perimeter=stepPerimeter;whiteSpace=wrap;html=1;fixedSize=1;rounded=1;fontFamily=Helvetica;fontSize=12;fontColor=#A69200;startSize=20;strokeColor=#A69200;strokeWidth=1;fillColor=default;" vertex="1" parent="2b4e8129b02d487f-3">
          <mxGeometry x="414" y="442" width="193" height="50" as="geometry" />
        </mxCell>
        <mxCell id="ZFfrjUVuDJgjYZVKDLoG-79" value="&lt;span style=&quot;color: rgb(255 , 255 , 255) ; font-family: &amp;#34;helvetica&amp;#34; ; font-size: 12px&quot;&gt;If-None-Match&lt;/span&gt;&lt;br style=&quot;color: rgb(255 , 255 , 255) ; font-family: &amp;#34;helvetica&amp;#34; ; font-size: 12px&quot;&gt;&lt;span style=&quot;color: rgb(255 , 255 , 255) ; font-family: &amp;#34;helvetica&amp;#34; ; font-size: 12px&quot;&gt;IS Value.ETag&lt;/span&gt;" style="strokeWidth=1;html=1;shape=mxgraph.flowchart.decision;whiteSpace=wrap;rounded=1;shadow=0;labelBackgroundColor=none;fontFamily=Verdana;fontSize=11;align=center;aspect=fixed;" vertex="1" parent="2b4e8129b02d487f-3">
          <mxGeometry x="407.5" y="304" width="108" height="108" as="geometry" />
        </mxCell>
        <mxCell id="ZFfrjUVuDJgjYZVKDLoG-80" value="&lt;span style=&quot;font-size: 11px&quot;&gt;set response header&lt;br&gt;ETag&amp;nbsp; = request If-None-Match&lt;/span&gt;" style="shape=step;perimeter=stepPerimeter;whiteSpace=wrap;html=1;fixedSize=1;rounded=1;fontFamily=Helvetica;fontSize=12;fontColor=#A69200;startSize=20;strokeColor=#A69200;strokeWidth=1;fillColor=default;" vertex="1" parent="2b4e8129b02d487f-3">
          <mxGeometry x="234" y="51.5" width="193" height="50" as="geometry" />
        </mxCell>
        <mxCell id="ZFfrjUVuDJgjYZVKDLoG-82" value="&lt;span style=&quot;font-size: 11px&quot;&gt;create HTTP304 result&lt;/span&gt;" style="shape=step;perimeter=stepPerimeter;whiteSpace=wrap;html=1;fixedSize=1;rounded=1;fontFamily=Helvetica;fontSize=12;fontColor=#A69200;startSize=20;strokeColor=#A69200;strokeWidth=1;fillColor=default;" vertex="1" parent="2b4e8129b02d487f-3">
          <mxGeometry x="462" y="51.5" width="193" height="50" as="geometry" />
        </mxCell>
        <mxCell id="ZFfrjUVuDJgjYZVKDLoG-59" style="jumpStyle=none;orthogonalLoop=1;jettySize=auto;html=1;fontFamily=Helvetica;fontSize=11;fontColor=#FFFFFF;startArrow=none;startFill=0;startSize=20;elbow=vertical;entryX=0;entryY=0.5;entryDx=0;entryDy=0;exitX=1;exitY=0.5;exitDx=0;exitDy=0;flowAnimation=1;fillColor=#e3c800;strokeColor=#B09500;" edge="1" parent="2b4e8129b02d487f-3" source="ZFfrjUVuDJgjYZVKDLoG-80" target="ZFfrjUVuDJgjYZVKDLoG-82">
          <mxGeometry relative="1" as="geometry">
            <mxPoint x="431.5" y="90.98826777087652" as="sourcePoint" />
            <mxPoint x="602" y="-168" as="targetPoint" />
          </mxGeometry>
        </mxCell>
        <mxCell id="ZFfrjUVuDJgjYZVKDLoG-83" style="jumpStyle=none;orthogonalLoop=1;jettySize=auto;html=1;fontFamily=Helvetica;fontSize=11;fontColor=#FFFFFF;startArrow=none;startFill=0;startSize=20;elbow=vertical;entryX=0.25;entryY=1;entryDx=0;entryDy=0;flowAnimation=1;fillColor=#e3c800;strokeColor=#B09500;exitX=0.5;exitY=0;exitDx=0;exitDy=0;exitPerimeter=0;" edge="1" parent="2b4e8129b02d487f-3" source="ZFfrjUVuDJgjYZVKDLoG-79" target="ZFfrjUVuDJgjYZVKDLoG-82">
          <mxGeometry relative="1" as="geometry">
            <mxPoint x="472" y="172" as="sourcePoint" />
            <mxPoint x="511" y="108.50000000000006" as="targetPoint" />
          </mxGeometry>
        </mxCell>
        <mxCell id="ZFfrjUVuDJgjYZVKDLoG-85" value="&lt;span style=&quot;color: rgb(255 , 255 , 255)&quot;&gt;YES:&lt;br&gt;COND. IS FULFILLED&lt;br&gt;&lt;/span&gt;&lt;font color=&quot;#ffffff&quot;&gt;overwrite Result&lt;br&gt;&lt;/font&gt;" style="edgeLabel;html=1;align=center;verticalAlign=middle;resizable=0;points=[];fontSize=11;fontFamily=Helvetica;fontColor=#A69200;" vertex="1" connectable="0" parent="ZFfrjUVuDJgjYZVKDLoG-83">
          <mxGeometry x="-0.5086" y="-1" relative="1" as="geometry">
            <mxPoint x="-4" y="2" as="offset" />
          </mxGeometry>
        </mxCell>
        <mxCell id="ZFfrjUVuDJgjYZVKDLoG-84" value="" style="edgeStyle=orthogonalEdgeStyle;curved=1;comic=0;jumpStyle=none;orthogonalLoop=1;jettySize=auto;html=1;fontFamily=Helvetica;fontSize=11;fontColor=#FFFFFF;startArrow=none;startFill=0;startSize=20;strokeColor=#7F00FF;elbow=vertical;flowAnimation=1;entryX=0.5;entryY=1;entryDx=0;entryDy=0;entryPerimeter=0;exitX=0.25;exitY=0;exitDx=0;exitDy=0;" edge="1" parent="2b4e8129b02d487f-3" source="ZFfrjUVuDJgjYZVKDLoG-77" target="ZFfrjUVuDJgjYZVKDLoG-79">
          <mxGeometry relative="1" as="geometry">
            <mxPoint x="395.48656945507844" y="474.4828760552248" as="sourcePoint" />
            <mxPoint x="439.98630084417994" y="473.9828760552248" as="targetPoint" />
          </mxGeometry>
        </mxCell>
        <mxCell id="2b4e8129b02d487f-4" value="Controller / action" style="swimlane;html=1;startSize=20;horizontal=0;strokeColor=#575757;fontColor=#FF00FF;" parent="2b4e8129b02d487f-1" vertex="1">
          <mxGeometry y="966" width="931" height="196" as="geometry">
            <mxRectangle y="690" width="680" height="28" as="alternateBounds" />
          </mxGeometry>
        </mxCell>
        <mxCell id="ZFfrjUVuDJgjYZVKDLoG-37" style="edgeStyle=orthogonalEdgeStyle;curved=1;jumpStyle=none;orthogonalLoop=1;jettySize=auto;html=1;fontFamily=Helvetica;fontSize=11;fontColor=#FFFFFF;startArrow=none;startFill=0;startSize=20;elbow=vertical;flowAnimation=1;strokeColor=#7F00FF;" edge="1" parent="2b4e8129b02d487f-4" source="ZFfrjUVuDJgjYZVKDLoG-22" target="ZFfrjUVuDJgjYZVKDLoG-36">
          <mxGeometry relative="1" as="geometry" />
        </mxCell>
        <mxCell id="ZFfrjUVuDJgjYZVKDLoG-22" value="CQRS Send" style="shape=step;perimeter=stepPerimeter;whiteSpace=wrap;html=1;fixedSize=1;rounded=1;fontFamily=Helvetica;fontSize=12;fontColor=#FFFFFF;startSize=20;strokeColor=#575757;strokeWidth=1;fillColor=default;" vertex="1" parent="2b4e8129b02d487f-4">
          <mxGeometry x="254" y="83.5" width="106" height="51" as="geometry" />
        </mxCell>
        <mxCell id="ZFfrjUVuDJgjYZVKDLoG-36" value="found?" style="strokeWidth=1;html=1;shape=mxgraph.flowchart.decision;whiteSpace=wrap;rounded=1;shadow=0;labelBackgroundColor=none;fontFamily=Verdana;fontSize=11;align=center;aspect=fixed;" vertex="1" parent="2b4e8129b02d487f-4">
          <mxGeometry x="406" y="81" width="56" height="56" as="geometry" />
        </mxCell>
        <mxCell id="ZFfrjUVuDJgjYZVKDLoG-1" value="CQRS" style="swimlane;html=1;startSize=20;horizontal=0;strokeColor=#575757;fontColor=#FF00FF;" vertex="1" parent="2b4e8129b02d487f-1">
          <mxGeometry y="1162" width="931" height="150" as="geometry">
            <mxRectangle y="470" width="680" height="20" as="alternateBounds" />
          </mxGeometry>
        </mxCell>
        <mxCell id="ZFfrjUVuDJgjYZVKDLoG-27" value="CQRS Handler" style="shape=parallelogram;perimeter=parallelogramPerimeter;whiteSpace=wrap;html=1;fixedSize=1;rounded=1;fontFamily=Helvetica;fontSize=12;fontColor=#FFFFFF;startSize=20;strokeColor=#575757;strokeWidth=1;fillColor=default;" vertex="1" parent="ZFfrjUVuDJgjYZVKDLoG-1">
          <mxGeometry x="253" y="49" width="108" height="60" as="geometry" />
        </mxCell>
        <mxCell id="ZFfrjUVuDJgjYZVKDLoG-15" value="" style="edgeStyle=orthogonalEdgeStyle;orthogonalLoop=1;jettySize=auto;html=1;entryX=0.5;entryY=0;entryDx=0;entryDy=0;entryPerimeter=0;fontColor=#FF00FF;jumpStyle=none;exitX=0.5;exitY=1;exitDx=0;exitDy=0;curved=1;flowAnimation=1;fillColor=#6a00ff;strokeColor=#7F00FF;" edge="1" parent="2b4e8129b02d487f-1" source="2b4e8129b02d487f-6" target="2b4e8129b02d487f-15">
          <mxGeometry relative="1" as="geometry">
            <mxPoint x="155" y="220" as="targetPoint" />
          </mxGeometry>
        </mxCell>
        <mxCell id="ZFfrjUVuDJgjYZVKDLoG-29" value="" style="endArrow=classic;html=1;fontFamily=Helvetica;fontSize=12;fontColor=#FFFFFF;startSize=20;curved=1;elbow=vertical;jumpStyle=none;edgeStyle=orthogonalEdgeStyle;exitX=0.25;exitY=1;exitDx=0;exitDy=0;entryX=0.25;entryY=0;entryDx=0;entryDy=0;fillColor=#60a917;strokeColor=#2D7600;" edge="1" parent="2b4e8129b02d487f-1" source="ZFfrjUVuDJgjYZVKDLoG-22" target="ZFfrjUVuDJgjYZVKDLoG-27">
          <mxGeometry relative="1" as="geometry">
            <mxPoint x="574" y="567" as="sourcePoint" />
            <mxPoint x="674" y="567" as="targetPoint" />
          </mxGeometry>
        </mxCell>
        <mxCell id="ZFfrjUVuDJgjYZVKDLoG-30" value="RQ" style="shape=message;html=1;outlineConnect=0;rounded=1;fontFamily=Helvetica;fontSize=12;fontColor=#FFFFFF;startSize=20;strokeColor=#575757;strokeWidth=1;fillColor=default;aspect=fixed;" vertex="1" parent="ZFfrjUVuDJgjYZVKDLoG-29">
          <mxGeometry width="28" height="19.6" relative="1" as="geometry">
            <mxPoint x="-14" y="14" as="offset" />
          </mxGeometry>
        </mxCell>
        <mxCell id="ZFfrjUVuDJgjYZVKDLoG-34" value="" style="endArrow=classic;html=1;fontFamily=Helvetica;fontSize=12;fontColor=#FFFFFF;startSize=20;curved=1;elbow=vertical;jumpStyle=none;edgeStyle=orthogonalEdgeStyle;exitX=0.75;exitY=0;exitDx=0;exitDy=0;entryX=0.75;entryY=1;entryDx=0;entryDy=0;fillColor=#60a917;strokeColor=#2D7600;" edge="1" parent="2b4e8129b02d487f-1" source="ZFfrjUVuDJgjYZVKDLoG-27" target="ZFfrjUVuDJgjYZVKDLoG-22">
          <mxGeometry relative="1" as="geometry">
            <mxPoint x="327.5" y="797.5" as="sourcePoint" />
            <mxPoint x="560" y="798" as="targetPoint" />
          </mxGeometry>
        </mxCell>
        <mxCell id="ZFfrjUVuDJgjYZVKDLoG-35" value="DTO" style="shape=message;html=1;outlineConnect=0;rounded=1;fontFamily=Helvetica;fontSize=12;fontColor=#FFFFFF;startSize=20;strokeColor=#575757;strokeWidth=1;fillColor=default;aspect=fixed;" vertex="1" parent="ZFfrjUVuDJgjYZVKDLoG-34">
          <mxGeometry width="28" height="19.6" relative="1" as="geometry">
            <mxPoint x="-15" y="-35" as="offset" />
          </mxGeometry>
        </mxCell>
        <mxCell id="ZFfrjUVuDJgjYZVKDLoG-40" style="edgeStyle=orthogonalEdgeStyle;curved=1;jumpStyle=none;orthogonalLoop=1;jettySize=auto;html=1;fontFamily=Helvetica;fontSize=11;fontColor=#FFFFFF;startArrow=none;startFill=0;startSize=20;elbow=vertical;flowAnimation=1;strokeColor=#FF3399;entryX=0.5;entryY=1;entryDx=0;entryDy=0;exitX=1;exitY=0.5;exitDx=0;exitDy=0;exitPerimeter=0;" edge="1" parent="2b4e8129b02d487f-1" source="ZFfrjUVuDJgjYZVKDLoG-36" target="2b4e8129b02d487f-10">
          <mxGeometry relative="1" as="geometry">
            <mxPoint x="525" y="1099" as="sourcePoint" />
            <mxPoint x="235.06666666666672" y="567.0000000000001" as="targetPoint" />
            <Array as="points">
              <mxPoint x="840" y="1075" />
              <mxPoint x="840" y="80" />
            </Array>
          </mxGeometry>
        </mxCell>
        <mxCell id="ZFfrjUVuDJgjYZVKDLoG-41" value="NO:&lt;br&gt;return: HTTP404" style="edgeLabel;html=1;align=center;verticalAlign=middle;resizable=0;points=[];fontSize=11;fontFamily=Helvetica;fontColor=#FFFFFF;" vertex="1" connectable="0" parent="ZFfrjUVuDJgjYZVKDLoG-40">
          <mxGeometry x="0.3602" y="5" relative="1" as="geometry">
            <mxPoint x="-268" y="573" as="offset" />
          </mxGeometry>
        </mxCell>
        <mxCell id="ZFfrjUVuDJgjYZVKDLoG-44" style="jumpStyle=none;orthogonalLoop=1;jettySize=auto;html=1;fontFamily=Helvetica;fontSize=11;fontColor=#FFFFFF;startArrow=none;startFill=0;startSize=20;elbow=vertical;exitX=1;exitY=0.5;exitDx=0;exitDy=0;exitPerimeter=0;entryX=0.5;entryY=1;entryDx=0;entryDy=0;flowAnimation=1;strokeColor=#2D7600;fillColor=#60a917;edgeStyle=orthogonalEdgeStyle;curved=1;" edge="1" parent="2b4e8129b02d487f-1" source="ZFfrjUVuDJgjYZVKDLoG-43" target="2b4e8129b02d487f-10">
          <mxGeometry relative="1" as="geometry">
            <mxPoint x="553" y="203" as="targetPoint" />
          </mxGeometry>
        </mxCell>
        <mxCell id="ZFfrjUVuDJgjYZVKDLoG-45" value="value NOT IEtag&lt;br&gt;COND. NOT FULFILLED" style="edgeLabel;html=1;align=center;verticalAlign=middle;resizable=0;points=[];fontSize=11;fontFamily=Helvetica;fontColor=#FFFFFF;" vertex="1" connectable="0" parent="ZFfrjUVuDJgjYZVKDLoG-44">
          <mxGeometry x="-0.2539" y="6" relative="1" as="geometry">
            <mxPoint x="-234" y="85" as="offset" />
          </mxGeometry>
        </mxCell>
        <mxCell id="ZFfrjUVuDJgjYZVKDLoG-50" style="edgeStyle=orthogonalEdgeStyle;jumpStyle=none;orthogonalLoop=1;jettySize=auto;html=1;entryX=0;entryY=0.75;entryDx=0;entryDy=0;fontFamily=Helvetica;fontSize=11;fontColor=#FFFFFF;startArrow=none;startFill=0;startSize=20;elbow=vertical;strokeColor=#2D7600;curved=1;bendable=1;movable=1;cloneable=1;deletable=1;noJump=0;flowAnimation=1;orthogonal=0;enumerate=0;comic=0;fillColor=#60a917;" edge="1" parent="2b4e8129b02d487f-1" source="ZFfrjUVuDJgjYZVKDLoG-23" target="ZFfrjUVuDJgjYZVKDLoG-22">
          <mxGeometry relative="1" as="geometry">
            <Array as="points">
              <mxPoint x="77" y="476" />
              <mxPoint x="77" y="1085" />
            </Array>
          </mxGeometry>
        </mxCell>
        <mxCell id="ZFfrjUVuDJgjYZVKDLoG-51" value="&lt;span style=&quot;font-size: 12px&quot;&gt;If-None-Match&lt;/span&gt;&lt;br style=&quot;font-size: 12px&quot;&gt;&lt;span style=&quot;font-size: 12px&quot;&gt;IS empty&lt;br&gt;OR&lt;br&gt;*&lt;br&gt;&lt;/span&gt;" style="edgeLabel;html=1;align=center;verticalAlign=middle;resizable=0;points=[];fontSize=11;fontFamily=Helvetica;fontColor=#FFFFFF;" vertex="1" connectable="0" parent="ZFfrjUVuDJgjYZVKDLoG-50">
          <mxGeometry x="-0.7437" y="17" relative="1" as="geometry">
            <mxPoint x="11" y="16" as="offset" />
          </mxGeometry>
        </mxCell>
        <mxCell id="ZFfrjUVuDJgjYZVKDLoG-60" value="get data" style="edgeLabel;html=1;align=center;verticalAlign=middle;resizable=0;points=[];fontSize=11;fontFamily=Helvetica;fontColor=#FFFFFF;" vertex="1" connectable="0" parent="ZFfrjUVuDJgjYZVKDLoG-50">
          <mxGeometry x="-0.307" y="22" relative="1" as="geometry">
            <mxPoint x="-8" y="-127" as="offset" />
          </mxGeometry>
        </mxCell>
        <mxCell id="ZFfrjUVuDJgjYZVKDLoG-53" style="edgeStyle=orthogonalEdgeStyle;curved=1;jumpStyle=none;orthogonalLoop=1;jettySize=auto;html=1;fontFamily=Helvetica;fontSize=11;fontColor=#FFFFFF;startArrow=none;startFill=0;startSize=20;elbow=vertical;exitX=0.5;exitY=1;exitDx=0;exitDy=0;exitPerimeter=0;entryX=0;entryY=0.25;entryDx=0;entryDy=0;strokeColor=#2D7600;flowAnimation=1;fillColor=#60a917;" edge="1" parent="2b4e8129b02d487f-1" source="ZFfrjUVuDJgjYZVKDLoG-52" target="ZFfrjUVuDJgjYZVKDLoG-22">
          <mxGeometry relative="1" as="geometry">
            <Array as="points">
              <mxPoint x="184" y="882" />
              <mxPoint x="184" y="1031" />
            </Array>
          </mxGeometry>
        </mxCell>
        <mxCell id="ZFfrjUVuDJgjYZVKDLoG-54" value="NO:&lt;br&gt;get data" style="edgeLabel;html=1;align=center;verticalAlign=middle;resizable=0;points=[];fontSize=11;fontFamily=Helvetica;fontColor=#FFFFFF;" vertex="1" connectable="0" parent="ZFfrjUVuDJgjYZVKDLoG-53">
          <mxGeometry x="-0.1631" y="-4" relative="1" as="geometry">
            <mxPoint x="4" y="-118" as="offset" />
          </mxGeometry>
        </mxCell>
        <mxCell id="ZFfrjUVuDJgjYZVKDLoG-68" style="comic=0;jumpStyle=none;orthogonalLoop=1;jettySize=auto;html=1;entryX=0.5;entryY=1;entryDx=0;entryDy=0;entryPerimeter=0;fontFamily=Helvetica;fontSize=11;fontColor=#7F00FF;startArrow=none;startFill=0;startSize=20;strokeColor=#7F00FF;elbow=vertical;fillColor=#60a917;flowAnimation=1;exitX=0.5;exitY=0;exitDx=0;exitDy=0;exitPerimeter=0;" edge="1" parent="2b4e8129b02d487f-1" source="ZFfrjUVuDJgjYZVKDLoG-36" target="ZFfrjUVuDJgjYZVKDLoG-43">
          <mxGeometry relative="1" as="geometry" />
        </mxCell>
        <mxCell id="ZFfrjUVuDJgjYZVKDLoG-69" value="YES:&lt;br&gt;HTTP200(value)" style="edgeLabel;html=1;align=center;verticalAlign=middle;resizable=0;points=[];fontSize=11;fontFamily=Helvetica;fontColor=#FFFFFF;" vertex="1" connectable="0" parent="ZFfrjUVuDJgjYZVKDLoG-68">
          <mxGeometry x="-0.7496" y="-1" relative="1" as="geometry">
            <mxPoint x="-1" y="-23" as="offset" />
          </mxGeometry>
        </mxCell>
        <mxCell id="ZFfrjUVuDJgjYZVKDLoG-86" style="jumpStyle=none;orthogonalLoop=1;jettySize=auto;html=1;fontFamily=Helvetica;fontSize=11;fontColor=#FFFFFF;startArrow=none;startFill=0;startSize=20;elbow=vertical;entryX=0;entryY=0.5;entryDx=0;entryDy=0;flowAnimation=1;fillColor=#e3c800;strokeColor=#B09500;exitX=0.5;exitY=0;exitDx=0;exitDy=0;" edge="1" parent="2b4e8129b02d487f-1" source="ZFfrjUVuDJgjYZVKDLoG-82" target="2b4e8129b02d487f-10">
          <mxGeometry relative="1" as="geometry">
            <mxPoint x="468.5" y="567" as="sourcePoint" />
            <mxPoint x="511" y="388.50000000000006" as="targetPoint" />
          </mxGeometry>
        </mxCell>
        <mxCell id="ZFfrjUVuDJgjYZVKDLoG-88" style="jumpStyle=none;orthogonalLoop=1;jettySize=auto;html=1;fontFamily=Helvetica;fontSize=11;fontColor=#FFFFFF;startArrow=none;startFill=0;startSize=20;elbow=vertical;exitX=1;exitY=0.5;exitDx=0;exitDy=0;exitPerimeter=0;entryX=0.5;entryY=1;entryDx=0;entryDy=0;flowAnimation=1;strokeColor=#2D7600;fillColor=#60a917;edgeStyle=orthogonalEdgeStyle;curved=1;" edge="1" parent="2b4e8129b02d487f-1" source="ZFfrjUVuDJgjYZVKDLoG-79" target="2b4e8129b02d487f-10">
          <mxGeometry relative="1" as="geometry">
            <mxPoint x="486.5" y="878.5000000000001" as="sourcePoint" />
            <mxPoint x="709" y="117" as="targetPoint" />
          </mxGeometry>
        </mxCell>
        <mxCell id="ZFfrjUVuDJgjYZVKDLoG-89" value="NO:&lt;br&gt;COND. NOT FULFILLED&lt;br&gt;retain Result" style="edgeLabel;html=1;align=center;verticalAlign=middle;resizable=0;points=[];fontSize=11;fontFamily=Helvetica;fontColor=#FFFFFF;" vertex="1" connectable="0" parent="ZFfrjUVuDJgjYZVKDLoG-88">
          <mxGeometry x="-0.2539" y="6" relative="1" as="geometry">
            <mxPoint x="-191" y="8" as="offset" />
          </mxGeometry>
        </mxCell>
      </root>
    </mxGraphModel>
  </diagram>
</mxfile>
